<svg xmlns="http://www.w3.org/2000/svg" width="116" height="116" viewBox="0 0 116 116" fill="none">
  <path d="M101.5 29C101.5 37.0081 90.6802 43.5 77.3333 43.5C63.9865 43.5 53.1667 37.0081 53.1667 29M101.5 29C101.5 20.9919 90.6802 14.5 77.3333 14.5C63.9865 14.5 53.1667 20.9919 53.1667 29M101.5 29V48.3333M53.1667 29V48.3333M53.1667 48.3333C53.1667 56.3422 63.9885 62.8333 77.3333 62.8333C90.6782 62.8333 101.5 56.3422 101.5 48.3333M53.1667 48.3333V67.6667M101.5 48.3333V67.6667M53.1667 67.6667C53.1667 75.6755 63.9885 82.1667 77.3333 82.1667C90.6782 82.1667 101.5 75.6755 101.5 67.6667M53.1667 67.6667V87C53.1667 95.0088 63.9885 101.5 77.3333 101.5C90.6782 101.5 101.5 95.0088 101.5 87V67.6667M33.8333 43.5H21.75C19.8272 43.5 17.9831 44.2638 16.6235 45.6235C15.2638 46.9831 14.5 48.8272 14.5 50.75C14.5 52.6728 15.2638 54.5169 16.6235 55.8765C17.9831 57.2362 19.8272 58 21.75 58H26.5833C28.5062 58 30.3502 58.7638 31.7099 60.1235C33.0695 61.4831 33.8333 63.3272 33.8333 65.25C33.8333 67.1728 33.0695 69.0169 31.7099 70.3765C30.3502 71.7362 28.5062 72.5 26.5833 72.5H14.5M24.1667 72.5V77.3333M24.1667 38.6667V43.5" stroke="#026D2A" stroke-width="4" stroke-linecap="round" stroke-linejoin="round"/>
</svg>