<svg xmlns="http://www.w3.org/2000/svg" width="116" height="116" viewBox="0 0 116 116" fill="none">
  <path d="M48.3333 29H67.6667M43.5 87H72.5M38.6667 14.5H77.3333C85.3415 14.5 91.8333 20.9919 91.8333 29V87C91.8333 95.0081 85.3415 101.5 77.3333 101.5H38.6667C30.6585 101.5 24.1667 95.0081 24.1667 87V29C24.1667 20.9919 30.6585 14.5 38.6667 14.5ZM67.6667 62.8333C67.6667 68.1721 63.3387 72.5 58 72.5C52.6612 72.5 48.3333 68.1721 48.3333 62.8333C48.3333 57.4946 52.6612 53.1667 58 53.1667C63.3387 53.1667 67.6667 57.4946 67.6667 62.8333Z" stroke="#026D2A" stroke-width="4" stroke-linecap="round" stroke-linejoin="round"/>
</svg>