<svg xmlns="http://www.w3.org/2000/svg" width="104" height="116" viewBox="0 0 104 104" fill="none">
  <path d="M30.3333 86.6667H73.6667M26 26L52 21.6667L78 26M26 26L39 52C39 55.4478 37.6304 58.7544 35.1924 61.1924C32.7544 63.6304 29.4478 65 26 65C22.5522 65 19.2456 63.6304 16.8076 61.1924C14.3696 58.7544 13 55.4478 13 52L26 26ZM78 26L91 52C91 55.4478 89.6304 58.7544 87.1924 61.1924C84.7544 63.6304 81.4478 65 78 65C74.5522 65 71.2456 63.6304 68.8076 61.1924C66.3696 58.7544 65 55.4478 65 52L78 26ZM52 13V86.6667" stroke="#026D2A" stroke-width="4" stroke-linecap="round" stroke-linejoin="round"/>
</svg>