<svg xmlns="http://www.w3.org/2000/svg" width="104" height="116" viewBox="0 0 104 104" fill="none">
  <path d="M56.3333 43.3333L88.3263 75.478C91.8927 79.0313 91.8927 84.786 88.3263 88.335C86.613 90.0391 84.2948 90.9958 81.8783 90.9958C79.4618 90.9958 77.1436 90.0391 75.4303 88.335L43.3333 56.3333M56.3333 43.3333L39 26M56.3333 43.3333L58.4999 45.5L68.4362 35.5637C69.2486 34.7511 69.7049 33.6491 69.7049 32.5C69.7049 31.351 69.2486 30.249 68.4362 29.4363L52.8969 13.897C52.0842 13.0846 50.9822 12.6283 49.8332 12.6283C48.6842 12.6283 47.5822 13.0846 46.7695 13.897L36.8332 23.8333L39 26M56.3333 43.3333L43.3333 56.3333M43.3333 56.3333L26 39M43.3333 56.3333L45.4999 58.5L35.5635 68.4363C34.7509 69.2487 33.6489 69.7051 32.4999 69.7051C31.3508 69.7051 30.2488 69.2487 29.4362 68.4363L13.8969 52.897C13.0845 52.0844 12.6281 50.9824 12.6281 49.8333C12.6281 48.6843 13.0845 47.5823 13.8969 46.7697L23.8332 36.8333L26 39M26 39L39 26M13 91H43.3333" stroke="#026D2A" stroke-width="4" stroke-linecap="round" stroke-linejoin="round"/>
</svg>